:SAMPLES-PER-SECOND 30
:FULLY-SPECIFIED
:DEGREES
487
root  30.9861 37.4705 0.254406 -129.397 -83.9814 124.377
RightUpLeg  18.3312 -6.15813 -8.66807
RightLeg  27.4936 14.0214 7.6041
RightFoot  -18.1303 0.462762 10.3736
RightToes  -1.74624e-010 0 -3.6325e-017
Spine  4.03359 3.1756 2.02274
Spine1  6.96423 5.13616 -8.2899
HEad  -9.27389 -8.98188 -1.31468
LeftShoulder1  -0.654222 5.10923 -34.5506
LeftArm  -4.43098 17.4868 -35.204
LeftForeArm  36.8617 -6.41532 -8.28561
LeftHand  -0.0485335 9.68406 0.101477
RightShoulder  -1.09718 -6.35052 31.9786
RightArm  20.987 11.5589 50.2023
RightForeArm  16.6288 8.89512 9.10134
RightHand  -0.170486 5.15816 -2.16044
LeftUpLeg  -20.1089 3.82184 -9.62772
LeftLeg  16.4323 3.97113 0.73988
LeftFoot  5.47032 -1.28464 8.47774
LeftToes  -3.96543e-010 8.93632e-011 -2.58531e-011
488
root  29.5618 37.4027 0.344847 -126.756 -82.7823 121.424
RightUpLeg  13.5917 -3.40508 -10.1293
RightLeg  39.418 12.7755 10.7733
RightFoot  -10.7345 -0.170702 16.8055
RightToes  -1.74624e-010 0 -3.6325e-017
Spine  4.64998 3.27691 0.801676
Spine1  6.49134 5.21087 -9.43316
HEad  -8.92733 -8.37137 -1.48522
LeftShoulder1  -0.504389 4.75579 -34.1396
LeftArm  -4.66958 15.3539 -36.2472
LeftForeArm  37.7017 -5.94571 -8.31341
LeftHand  -0.0715992 8.97545 -0.688178
RightShoulder  -1.15693 -6.48866 32.1972
RightArm  16.5658 9.28964 50.7267
RightForeArm  22.987 2.73907 8.89229
RightHand  -0.0566249 3.1885 -1.02502
LeftUpLeg  -19.6383 6.41303 -11.6946
LeftLeg  20.4983 2.23273 1.05009
LeftFoot  2.36448 -1.27405 10.4355
LeftToes  -3.96543e-010 8.93632e-011 -2.58531e-011
489
root  28.2689 37.3646 0.444515 -127.885 -81.1827 122.074
RightUpLeg  6.88915 0.514504 -11.3388
RightLeg  51.9634 10.4818 13.7375
RightFoot  1.08882 -1.95178 18.3604
RightToes  -1.74624e-010 0 -3.6325e-017
Spine  5.75364 3.23559 -0.932838
Spine1  6.16303 4.95336 -9.91262
HEad  -9.37632 -6.82994 -2.84271
LeftShoulder1  -0.477706 4.68213 -34.3494
LeftArm  -4.21076 12.628 -37.1309
LeftForeArm  37.5353 -6.22733 -8.60132
LeftHand  -0.0931657 8.73559 -1.58933
RightShoulder  -1.01793 -6.19813 31.2182
RightArm  14.5191 6.90445 51.8736
RightForeArm  26.3625 -0.717675 8.13829
RightHand  -0.0307356 1.78646 -0.655863
LeftUpLeg  -18.3912 7.54384 -13.149
LeftLeg  23.2179 2.57726 1.48872
LeftFoot  -0.96435 -1.00549 11.0812
LeftToes  -3.96543e-010 8.93632e-011 -2.58531e-011
490
root  27.0189 37.3955 0.518067 -127.373 -80.0317 121.092
RightUpLeg  0.519655 3.64113 -12.2314
RightLeg  61.0618 8.31711 15.3362
RightFoot  10.4921 -3.09774 16.2522
RightToes  -1.74624e-010 0 -3.6325e-017
Spine  6.06919 2.91296 -3.3353
Spine1  7.00055 4.19581 -9.2689
HEad  -11.3456 -5.72667 -3.85216
LeftShoulder1  -0.369049 4.41889 -34.1192
LeftArm  -4.05821 9.8363 -38.886
LeftForeArm  36.8207 -7.39045 -8.64294
LeftHand  -0.0714778 7.45182 -0.490436
RightShoulder  -0.954943 -6.0238 31.2987
RightArm  14.7306 5.10191 51.0913
RightForeArm  28.4454 -0.559154 8.22918
RightHand  0.0204068 1.99124 0.148604
LeftUpLeg  -16.4262 9.18472 -14.1782
LeftLeg  24.4708 1.88982 1.15994
LeftFoot  -3.76175 -0.720111 11.1684
LeftToes  -3.96543e-010 8.93632e-011 -2.58531e-011
491
root  25.712 37.5712 0.583979 -125.863 -80.5017 119.352
RightUpLeg  -4.78778 5.2944 -11.9744
RightLeg  66.3062 5.70842 13.4508
RightFoot  6.2465 -2.27041 14.8519
RightToes  -1.74624e-010 0 -3.6325e-017
Spine  6.13353 2.13165 -4.58073
Spine1  7.20168 2.8996 -7.78356
HEad  -11.7646 -4.27125 -4.37382
LeftShoulder1  -0.55344 4.85562 -34.7849
LeftArm  -2.24325 5.60399 -39.5876
LeftForeArm  35.9573 -8.08627 -9.17528
LeftHand  -0.0398983 4.41099 2.22556
RightShoulder  -1.01457 -6.16085 31.6059
RightArm  16.5483 2.66155 48.8689
RightForeArm  27.0782 2.445 8.7381
RightHand  0.0416314 2.61671 0.397999
LeftUpLeg  -13.9273 10.1001 -13.8675
LeftLeg  24.7356 0.8364 0.573343
LeftFoot  -6.14304 -0.472877 11.2025
LeftToes  -3.96543e-010 8.93632e-011 -2.58531e-011
492
root  24.3923 37.832 0.657928 -124.395 -81.5901 117.586
RightUpLeg  -9.4578 6.55324 -11.0497
RightLeg  67.8445 4.2477 10.7625
RightFoot  4.21761 -1.60287 11.9337
RightToes  -1.74624e-010 0 -3.6325e-017
Spine  6.0217 1.27854 -5.2743
Spine1  7.50519 1.59288 -6.00474
HEad  -12.2438 -3.26827 -5.02902
LeftShoulder1  -0.543383 4.83761 -34.5751
LeftArm  0.210887 2.02388 -41.0122
LeftForeArm  33.8924 -9.66512 -9.34987
LeftHand  -0.0288277 7.4585 0.500023
RightShoulder  -1.03413 -6.22267 31.4587
RightArm  17.7817 -0.344517 46.8118
RightForeArm  24.4352 6.38007 8.69741
RightHand  0.0414232 3.68679 0.272797
LeftUpLeg  -10.7594 10.4929 -12.7489
LeftLeg  24.0313 -0.0327079 -0.166118
LeftFoot  -7.92325 -0.293749 11.4067
LeftToes  -3.96543e-010 8.93632e-011 -2.58531e-011
493
root  23.0859 38.0958 0.701681 -120.233 -82.902 113.116
RightUpLeg  -13.3774 7.47855 -10.0247
RightLeg  66.2507 3.30564 7.60376
RightFoot  3.11198 -1.18212 9.45995
RightToes  -1.74624e-010 0 -3.6325e-017
Spine  6.18527 0.471377 -6.009
Spine1  7.30204 0.286853 -4.02729
HEad  -11.9318 -2.4415 -5.02855
LeftShoulder1  -0.561104 4.89755 -34.0836
LeftArm  3.17388 -1.14124 -42.6376
LeftForeArm  31.3028 -11.9583 -8.8742
LeftHand  -0.0213348 6.43229 1.19315
RightShoulder  -0.963376 -6.08219 30.786
RightArm  19.7743 -3.77613 45.163
RightForeArm  20.6637 10.5054 7.98839
RightHand  0.0318022 3.74482 0.153262
LeftUpLeg  -7.19739 10.4355 -11.2959
LeftLeg  22.6148 -0.782193 -1.15557
LeftFoot  -9.32124 -0.148691 11.577
LeftToes  -3.96543e-010 8.93632e-011 -2.58531e-011
494
root  21.8261 38.3248 0.764351 -114.097 -83.9907 106.828
RightUpLeg  -16.7626 8.31145 -9.33641
RightLeg  61.7728 2.96778 5.49049
RightFoot  1.77227 -0.714676 6.3407
RightToes  -1.74624e-010 0 -3.6325e-017
Spine  6.44231 -0.150703 -6.30964
Spine1  6.92561 -0.575044 -2.6599
HEad  -11.9311 -2.40297 -4.25503
LeftShoulder1  -0.541044 4.86593 -33.5661
LeftArm  7.62707 -4.09306 -44.1594
LeftForeArm  26.4751 -15.2544 -7.63098
LeftHand  -0.00873116 7.19411 1.80435
RightShoulder  -0.95258 -6.06867 30.5589
RightArm  22.2509 -6.51684 43.5874
RightForeArm  15.2823 13.4773 7.15235
RightHand  -0.031035 4.48275 -0.653429
LeftUpLeg  -3.75282 9.46101 -10.0318
LeftLeg  20.7777 -0.933976 -1.97639
LeftFoot  -10.4248 -0.0312238 11.7282
LeftToes  -3.96543e-010 8.93632e-011 -2.58531e-011
495
root  20.583 38.4725 0.831088 -104.147 -85.0311 96.7524
RightUpLeg  -18.8893 8.74587 -8.72722
RightLeg  54.2269 2.75275 3.70961
RightFoot  -0.390799 -0.588464 6.10466
RightToes  -1.74624e-010 0 -3.6325e-017
Spine  6.81577 -0.77017 -6.48952
Spine1  6.51635 -1.43519 -1.32219
HEad  -11.7446 -2.34426 -3.73676
LeftShoulder1  -0.605569 5.0313 -33.4666
LeftArm  11.932 -6.91348 -45.1271
LeftForeArm  21.0378 -18.7061 -5.85683
LeftHand  -0.0117968 6.81455 1.78905
RightShoulder  -0.951337 -6.08605 30.2631
RightArm  23.33 -8.29735 42.3285
RightForeArm  13.3258 15.0281 6.53646
RightHand  -0.0682306 4.93538 -1.06973
LeftUpLeg  -0.564321 8.48537 -8.86558
LeftLeg  19.1663 -1.19379 -2.60947
LeftFoot  -11.5686 0.0937857 11.9514
LeftToes  -3.96543e-010 8.93632e-011 -2.58531e-011
496
root  19.3319 38.5625 0.883266 -90.689 -85.5328 83.1283
RightUpLeg  -19.7126 8.79173 -8.39428
RightLeg  43.9407 2.3757 2.18875
RightFoot  -1.14601 -0.525887 5.81386
RightToes  -1.74624e-010 0 -3.6325e-017
Spine  6.98448 -1.24787 -6.5244
Spine1  6.44021 -1.93829 -0.76399
HEad  -11.5843 -2.56971 -2.799
LeftShoulder1  -0.505493 4.80812 -32.6207
LeftArm  13.946 -9.46179 -46.4141
LeftForeArm  16.7055 -21.5371 -4.58533
LeftHand  0.0233611 7.16318 3.84104
RightShoulder  -0.969845 -6.11389 30.5823
RightArm  22.349 -9.23151 41.2183
RightForeArm  13.6076 14.8335 6.42537
RightHand  -0.0881612 5.3031 -1.26935
LeftUpLeg  2.57056 7.90733 -7.99053
LeftLeg  17.7302 -1.71202 -3.21369
LeftFoot  -12.5867 0.208485 12.1752
LeftToes  -3.96543e-010 8.93632e-011 -2.58531e-011
497
root  18.0553 38.5902 0.93222 -78.9854 -85.5563 71.6111
RightUpLeg  -19.8257 7.99909 -8.29653
RightLeg  32.0242 1.46562 0.799191
RightFoot  -1.8768 -0.558035 6.573
RightToes  -1.74624e-010 0 -3.6325e-017
Spine  6.74989 -1.57317 -6.83205
Spine1  6.29785 -2.34235 0.241975
HEad  -12.1295 -1.87921 -2.15885
LeftShoulder1  -0.482932 4.75804 -32.3639
LeftArm  13.6958 -11.541 -47.0222
LeftForeArm  16.27 -24.2562 -4.25283
LeftHand  0.0113396 6.38939 4.64933
RightShoulder  -0.941251 -6.04151 30.5066
RightArm  19.654 -9.7288 40.8662
RightForeArm  15.459 12.9481 6.74807
RightHand  -0.120412 5.04058 -1.64367
LeftUpLeg  5.29909 7.52506 -7.50626
LeftLeg  16.3352 -2.37185 -3.58204
LeftFoot  -13.5964 0.323112 12.1761
LeftToes  -3.96543e-010 8.93632e-011 -2.58531e-011
498
root  16.741 38.5389 0.977386 -74.1396 -85.276 67.1871
RightUpLeg  -19.6049 5.18675 -7.82727
RightLeg  19.8805 2.30241 0.432046
RightFoot  -2.47362 -0.524401 6.52832
RightToes  -1.74624e-010 0 -3.6325e-017
Spine  5.67567 -1.61716 -7.0255
Spine1  7.0284 -2.33614 0.901201
HEad  -15.0671 1.9184 -1.30762
LeftShoulder1  -0.472697 4.73741 -32.1746
LeftArm  12.0865 -13.6111 -47.6919
LeftForeArm  18.4174 -26.4566 -4.69794
LeftHand  -0.00819648 5.8838 4.15893
RightShoulder  -0.956536 -6.07352 30.6429
RightArm  17.0465 -9.48357 40.6452
RightForeArm  17.8537 10.4759 7.04593
RightHand  -0.100116 4.44135 -1.46429
LeftUpLeg  7.79798 7.18416 -7.52148
LeftLeg  14.923 -2.64109 -3.60122
LeftFoot  -14.7077 0.44841 12.2147
LeftToes  -3.96543e-010 8.93632e-011 -2.58531e-011
499
root  15.3957 38.4188 1.03333 -73.3243 -84.7025 66.916
RightUpLeg  -19.1946 -1.52747 -6.11949
RightLeg  8.63599 7.26149 0.335538
RightFoot  -3.15268 -0.532943 7.17795
RightToes  -1.74624e-010 0 -3.6325e-017
Spine  4.6307 -1.49542 -6.94826
Spine1  7.45156 -2.0634 1.03219
HEad  -14.8439 0.647722 -1.11817
LeftShoulder1  -0.433566 4.64537 -31.84
LeftArm  11.6856 -15.127 -48.4417
LeftForeArm  19.8201 -28.2022 -5.01478
LeftHand  -0.0398097 4.84876 3.42709
RightShoulder  -0.97685 -6.11694 30.8057
RightArm  14.6846 -9.38607 40.6437
RightForeArm  19.686 7.96359 6.92514
RightHand  -0.0610255 3.71105 -1.04022
LeftUpLeg  10.2408 6.70415 -7.99433
LeftLeg  13.426 -2.70857 -3.53839
LeftFoot  -15.9323 0.568449 11.7292
LeftToes  -3.96543e-010 8.93632e-011 -2.58531e-011
